<svg width="40" height="40" viewBox="0 0 40 40" fill="none" xmlns="http://www.w3.org/2000/svg">
<path opacity="0.4" d="M9.98755 36C10.4125 36 10.8188 35.9562 11.2063 35.875C11.4125 35.8375 11.5938 35.7875 11.775 35.7312C12.3438 35.5562 12.8688 35.3 13.35 34.975C13.6688 34.7625 13.9625 34.5187 14.2313 34.25C15.3188 33.1625 15.9938 31.6625 15.9938 30.0062C15.9938 25.2187 15.9938 20.425 15.9938 15.6312L22 9.62498C23.1688 8.45623 25.0688 8.45623 26.2438 9.62498L30.4875 13.8687C31.6563 15.0375 31.6563 16.9375 30.4875 18.1125L14.3563 34.2437C13.1563 35.4437 11.575 36.0312 9.98755 36ZM16.8375 36L28.8375 24H33C34.6563 24 36 25.3437 36 27V33C36 34.6562 34.6563 36 33 36H16.8438H16.8375Z" fill="white"/>
<path d="M7 4C5.34375 4 4 5.34375 4 7V30C4 33.3125 6.6875 36 10 36C13.3125 36 16 33.3125 16 30V7C16 5.34375 14.6562 4 13 4H7ZM9 8H11C11.55 8 12 8.45 12 9V11C12 11.55 11.55 12 11 12H9C8.45 12 8 11.55 8 11V9C8 8.45 8.45 8 9 8ZM8 17C8 16.45 8.45 16 9 16H11C11.55 16 12 16.45 12 17V19C12 19.55 11.55 20 11 20H9C8.45 20 8 19.55 8 19V17ZM10 28.5C10.8313 28.5 11.5 29.1688 11.5 30C11.5 30.8312 10.8313 31.5 10 31.5C9.16875 31.5 8.5 30.8312 8.5 30C8.5 29.1688 9.16875 28.5 10 28.5Z" fill="white"/>
</svg>
