<svg width="40" height="40" viewBox="0 0 40 40" fill="none" xmlns="http://www.w3.org/2000/svg">
<path opacity="0.4" d="M8 8V32C8 34.2062 9.79375 36 12 36H28C30.2062 36 32 34.2062 32 32V14.6562C32 13.5938 31.5812 12.575 30.8312 11.825L24.1688 5.16875C23.4188 4.41875 22.4062 4 21.3438 4H12C9.79375 4 8 5.79375 8 8ZM12 9.5C12 8.66875 12.6687 8 13.5 8H16.5C17.3313 8 18 8.66875 18 9.5C18 10.3313 17.3313 11 16.5 11H13.5C12.6687 11 12 10.3313 12 9.5ZM12 15.5C12 14.6687 12.6687 14 13.5 14H16.5C17.3313 14 18 14.6687 18 15.5C18 16.3313 17.3313 17 16.5 17H13.5C12.6687 17 12 16.3313 12 15.5ZM15.75 23.7812C15.75 21.9813 17.2 20.5187 19 20.5V20.25C19 19.5625 19.5625 19 20.25 19C20.9375 19 21.5 19.5625 21.5 20.25V20.5H22C22.6875 20.5 23.25 21.0625 23.25 21.75C23.25 22.4375 22.6875 23 22 23H19.0312C18.6 23 18.25 23.35 18.25 23.7812C18.25 24.1625 18.525 24.4875 18.9 24.55L21.5063 24.9875C23.0875 25.25 24.25 26.6187 24.25 28.225C24.25 29.8563 23.0625 31.2062 21.5 31.4625V31.7563C21.5 32.4438 20.9375 33.0062 20.25 33.0062C19.5625 33.0062 19 32.4438 19 31.7563V31.5063H17.5C16.8125 31.5063 16.25 30.9438 16.25 30.2563C16.25 29.5688 16.8125 29.0063 17.5 29.0063H20.9688C21.4 29.0063 21.75 28.6562 21.75 28.225C21.75 27.8438 21.475 27.5187 21.1 27.4562L18.4937 27.0187C16.9062 26.75 15.75 25.3813 15.75 23.7812ZM21 7.65625L28.3438 15H22.5C21.6687 15 21 14.3313 21 13.5V7.65625Z" fill="white"/>
<path d="M13.5 8C12.6687 8 12 8.66875 12 9.5C12 10.3312 12.6687 11 13.5 11H16.5C17.3313 11 18 10.3312 18 9.5C18 8.66875 17.3313 8 16.5 8H13.5ZM13.5 14C12.6687 14 12 14.6687 12 15.5C12 16.3313 12.6687 17 13.5 17H16.5C17.3313 17 18 16.3313 18 15.5C18 14.6687 17.3313 14 16.5 14H13.5ZM20.25 19C19.5625 19 19 19.5625 19 20.25V20.5C17.2 20.5188 15.75 21.9812 15.75 23.7812C15.75 25.3875 16.9062 26.7562 18.4937 27.0187L21.1 27.4562C21.475 27.5187 21.75 27.8438 21.75 28.225C21.75 28.6562 21.4 29.0063 20.9688 29.0063L17.5 29C16.8125 29 16.25 29.5625 16.25 30.25C16.25 30.9375 16.8125 31.5 17.5 31.5H19V31.75C19 32.4375 19.5625 33 20.25 33C20.9375 33 21.5 32.4375 21.5 31.75V31.4562C23.0625 31.2 24.25 29.85 24.25 28.2188C24.25 26.6125 23.0938 25.2438 21.5063 24.9813L18.9 24.5438C18.525 24.4813 18.25 24.1562 18.25 23.775C18.25 23.3438 18.6 22.9937 19.0312 22.9937H22C22.6875 22.9937 23.25 22.4312 23.25 21.7437C23.25 21.0562 22.6875 20.4937 22 20.4937H21.5V20.2437C21.5 19.5562 20.9375 18.9937 20.25 18.9937V19Z" fill="white"/>
</svg>
