<svg width="40" height="40" viewBox="0 0 40 40" fill="none" xmlns="http://www.w3.org/2000/svg">
<path opacity="0.4" d="M0 21C0 29.2812 6.71875 36 15 36C23.2812 36 30 29.2812 30 21C30 12.7188 23.2812 6 15 6C6.71875 6 0 12.7188 0 21ZM6.9125 26.8813C6.425 26.2125 6.575 25.275 7.24375 24.7875C7.9125 24.3 8.85 24.45 9.3375 25.1187C10.6125 26.8687 12.675 28 15 28C17.325 28 19.3875 26.8687 20.6625 25.1187C21.15 24.45 22.0875 24.3 22.7563 24.7875C23.425 25.275 23.575 26.2125 23.0875 26.8813C21.2687 29.375 18.325 31 15 31C11.675 31 8.73125 29.375 6.9125 26.8813ZM12 18C12 19.1062 11.1062 20 10 20C8.89375 20 8 19.1062 8 18C8 16.8938 8.89375 16 10 16C11.1062 16 12 16.8938 12 18ZM22 18C22 19.1062 21.1063 20 20 20C18.8937 20 18 19.1062 18 18C18 16.8938 18.8937 16 20 16C21.1063 16 22 16.8938 22 18Z" fill="white"/>
<path d="M35.5 1.5C35.5 0.66875 34.8312 0 34 0C33.1688 0 32.5 0.66875 32.5 1.5V4.5H29.5C28.6688 4.5 28 5.16875 28 6C28 6.83125 28.6688 7.5 29.5 7.5H32.5V10.5C32.5 11.3313 33.1688 12 34 12C34.8312 12 35.5 11.3313 35.5 10.5V7.5H38.5C39.3312 7.5 40 6.83125 40 6C40 5.16875 39.3312 4.5 38.5 4.5H35.5V1.5ZM12 18C12 16.8937 11.1063 16 10 16C8.89375 16 8 16.8937 8 18C8 19.1063 8.89375 20 10 20C11.1063 20 12 19.1063 12 18ZM20 20C21.1062 20 22 19.1063 22 18C22 16.8937 21.1062 16 20 16C18.8938 16 18 16.8937 18 18C18 19.1063 18.8938 20 20 20Z" fill="white"/>
</svg>
